C:\GBW_MyPrograms\KinderuniversiteitApp\Resultaten\Ellis\Volwassenen\Volwassenen_v1.mot
version=1
nRows=9
nColumns=29
inDegrees=yes
endheader
                time	         pelvis_tilt	           pelvis_tx	           pelvis_ty	       hip_flexion_l	       hip_flexion_r	        knee_angle_l	        knee_angle_r	       ankle_angle_l	       ankle_angle_r	    lumbar_extension	hamstrings_r/activation	bifemsh_r/activation	glut_max_r/activation	iliopsoas_r/activation	rect_fem_r/activation	  vasti_r/activation	gastroc_r/activation	 soleus_r/activation	tib_ant_r/activation	hamstrings_l/activation	bifemsh_l/activation	glut_max_l/activation	iliopsoas_l/activation	rect_fem_l/activation	  vasti_l/activation	gastroc_l/activation	 soleus_l/activation	tib_ant_l/activation	
          1.04104306	         -7.90842808	          1.23380447	          1.02296313	        -12.67086327	         28.04681692	         -6.37417717	        -17.14381959	         -6.66901341	          2.87881165	          1.10397008	          0.21175125	          0.05000000	          0.05000000	          0.05867535	          0.07091058	          0.07400417	          0.05379711	          0.05867535	          0.19988474	          0.05000000	          0.11898191	          0.05000000	          0.56581047	          0.05000000	          0.05000000	          0.21745841	          0.31289084	          0.05000000	
          1.05145349	         -7.89717740	          1.24965669	          1.02123548	        -12.18420593	         27.37298352	         -8.81345652	        -16.90571843	         -7.18054669	          2.79466301	          1.43811151	          0.18975060	          0.05000000	          0.05892808	          0.05000000	          0.06042620	          0.10661084	          0.05000000	          0.05000000	          0.22241541	          0.05000000	          0.10139002	          0.05000000	          0.50070417	          0.05000000	          0.05000000	          0.18530642	          0.26957556	          0.05000000	
          1.06186392	         -7.88218508	          1.26584457	          1.01943656	        -11.54090404	         26.64166189	        -11.53819712	        -17.21677335	         -7.87495543	          2.95591974	          1.80648865	          0.16169530	          0.06885594	          0.10801661	          0.05000000	          0.05149198	          0.13406872	          0.05000000	          0.06223429	          0.19758966	          0.05000000	          0.08639914	          0.05000000	          0.42667329	          0.05000000	          0.05000000	          0.15790821	          0.22971786	          0.05000000	
          1.07227436	         -7.86670332	          1.28214340	          1.01774013	        -10.71689376	         25.86678105	        -14.52861324	        -17.66050395	         -8.88161325	          3.55794569	          2.18757762	          0.13778808	          0.05867535	          0.13913235	          0.05000000	          0.05000000	          0.18811943	          0.05000000	          0.10067685	          0.16837533	          0.05000000	          0.07362473	          0.07946839	          0.36358814	          0.05000000	          0.05000000	          0.13456093	          0.19575327	          0.05000000	
          1.08268479	         -7.85437320	          1.29819003	          1.01646801	         -9.69021596	         25.16507415	        -17.74577251	        -18.24592238	        -10.26006135	          4.57353752	          2.54446776	          0.11741563	          0.05000000	          0.19510395	          0.05000000	          0.05000000	          0.25195297	          0.05000000	          0.14731627	          0.14348044	          0.05000000	          0.06273905	          0.06885594	          0.30983035	          0.05000000	          0.05037166	          0.11466562	          0.16681046	          0.20216657	
          1.09309522	         -7.84757991	          1.31368842	          1.01573425	         -8.47693347	         24.55082001	        -21.12703759	        -18.90640012	        -11.44852197	          5.52277509	          2.84687846	          0.10005531	          0.05000000	          0.18895675	          0.05000000	          0.05000000	          0.29895875	          0.05000000	          0.19527313	          0.12226635	          0.05000000	          0.05346286	          0.05867535	          0.26402084	          0.05867535	          0.05000000	          0.09771190	          0.14214694	          0.20150243	
          1.10350565	         -7.84706090	          1.32858593	          1.01557036	         -7.16217596	         23.95368651	        -24.42856590	        -19.49211020	        -11.55758860	          6.26825362	          3.09067888	          0.08526178	          0.05000000	          0.16291369	          0.05000000	          0.05000000	          0.31516637	          0.07284447	          0.23091537	          0.10418884	          0.05000000	          0.05000000	          0.05000000	          0.22498443	          0.05000000	          0.05000000	          0.08326485	          0.12113001	          0.24030228	
          1.11391608	         -7.85154117	          1.34297370	          1.01604633	         -5.79931474	         23.30148031	        -27.50457154	        -19.88111672	        -11.27768302	          6.76940829	          3.28586346	          0.07265553	          0.05000000	          0.14357667	          0.05000000	          0.05000000	          0.30616315	          0.09419718	          0.25950424	          0.09788384	          0.05000000	          0.07057014	          0.05000000	          0.19171969	          0.05000000	          0.05000000	          0.07095385	          0.10322051	          0.22758528	
          1.12432651	         -7.86105666	          1.35693252	          1.01712040	         -4.42299493	         22.56372667	        -30.29043717	        -20.03216917	        -10.76906644	          7.06597412	          3.44238830	          0.06773199	          0.05000000	          0.12380394	          0.05000000	          0.05000000	          0.27517560	          0.11568555	          0.27815260	          0.09803706	          0.05000000	          0.09324543	          0.05000000	          0.16337325	          0.05000000	          0.05000000	          0.06282694	          0.08795900	          0.21334189	
